<?xml version="1.0" encoding="UTF-8"?>
<svg id="_レイヤー_1" data-name="レイヤー_1" xmlns="http://www.w3.org/2000/svg" version="1.1" viewBox="0 0 1200 630">
  <!-- Generator: Adobe Illustrator 30.3.0, SVG Export Plug-In . SVG Version: 2.1.3 Build 182)  -->
  <defs>
    <style>
      .st0 {
        fill: #fff5e1;
      }

      .st1 {
        fill: #d2691e;
      }
    </style>
  </defs>
  <g id="_レイヤー_11" data-name="_レイヤー_1">
    <rect class="st1" width="1200" height="630"/>
  </g>
  <path class="st0" d="M861.85,298.73c-1.01,2.01-5.02,2.34-6.03,0s-3.35-12.39-12.4-11.06c-22.79,3.01-25.48,39.87-27.82,42.89-2.01-2.01-3.98-1.14-7.67-1.14-8.87-65.77-96.07-61.34-111.59-53.95-124.15-195.09-214.99-185.25-226.93-192.42-10.51,8.13-16.25,21.99-14.37,28.41-17.79,21.66,24,68.88,30.96,69.66-3.87,35.6,45.66,55.72,51.85,58.04,4.64,15.49,34.82,33.28,40.45,39.76-13.52,3.76-53.25-2.42-72.85-2-19.6.41-87.25-7.93-96.02-9.6-8.76-1.67-46.33-18.79-53.84-25.46-7.51-6.68-26.29-14.61-33.39-6.26-7.1,8.35-3.86,38.73,5.87,56.16,9.73,17.43,42.03,72.29,85.6,110.22s97.58,29.06,107.24,23.25c-6.18,10.83-6.18,47.93-11.98,58.76s-33.24,18.95-33.24,18.95l1.32,3.12,2.15,5.78,2.45,1.38,5.28,2.48,2.49.49,1.13-1.74s16.49-19.23,27.31-26.19c10.81-6.97,43.68-54.51,47.54-62.24,13.91,10.81,89.68,4.25,96.25,4.25-16.62,15.46-.38,61.07,3.48,68.03,3.86,6.95,7.34,25.12,7.34,25.12l2.49.23,2.93-.23,2.69-1.57,3.11-2.29,2.42-2.72,1.07-3.47s-10.44-12.76-12.37-20.49c-1.93-7.73,26.29-66.49,28.22-71.12,10.05,3.48,36.34-1.93,44.07-4.64.39,10.05,59.92,35.56,62.24,36.73,2.32,1.17,9.27,8.12,9.27,8.12l2.52-.27,2.08-1.8.83-.86,2.29-3.11.19-3.08-.46-3.35s-6.61-1.24-15.35-4.6-40.79-55.1-30.91-47.04l.04-.02c3.29,2.68,25.37-3.74,34.3-7.42s12.36-39.96,12.36-39.96c0,0,2.1-1.04,1.58-8.14-.52-7.1-11.04-11.01-11.04-11.01,0,0,7.27,1.35,12.37,2.01,5.1.67-11.97-3.5-11.97-3.5l.53-2.15s7.79,1.74,12.1,2.68c4.31.95-11.69-4.3-11.69-4.3l.4-2.83s8.73,4.43,11.82,5.51c3.09,1.08-11.15-7.26-11.15-7.26l.27-2.55s11.02,6.31,12.9,6.04c1.88-.27-12.1-7.66-12.1-7.66,0,0,.13-1.34.53-2.28.4-.95,10.75,7.38,13.04,7.93s-12.23-9.67-12.23-9.67c0,0,.4-1.47.8-2.68s11.43,9.01,12.77,9.01-11.97-11.42-11.97-11.42c0,0,.55-.93.95-1.88.4-.95,11.17,11.29,12.5,11.42s-11.97-13.44-11.97-13.44c0,0,.68-.67,1.08-1.88s9.94,13.17,11.55,13.04c1.61-.13-11.01-13.75-10.3-14.65.7-.9,10.38,13.3,11.79,13s-11.08-14.5-11.08-14.5c0,0,.4-.41.8-1.31.4-.9,9.37,12.9,11.08,13-.21-1.82-9.98-13.96-9.98-13.96,0,0,.3-.95.8-1.55s9.56,14.1,9.77,13.4c.21-.7-8.56-14.3-8.56-14.3,0,0,.4-.59,1.31-1.41s6.75,13.69,8.46,13.9c.3-1.2-6.95-14.9-6.95-14.9l1.61-1.01c.81-.51,4.64,12.79,6.35,14.2.4-1.72-4.73-15.01-4.73-15.01,0,0,1.01-.4,1.61-.8.61-.4,5.24,15.11,5.44,14.2s-3.93-14.5-3.93-14.5c0,0,1.01-.41,1.61-.61.61-.19,3.42,13.91,4.43,14.01.5-1.71-2.62-14.01-2.62-14.01,0,0,.51.1,1.61.1s2.11,13.59,3.12,14.52c1.01-2.31-1.31-14.02-1.31-14.02l1.61.8c1.01.51.91,12.79,1.92,14.71.5-1.92-.3-13.1-.3-13.1,0,0,.59.7,1.1,1.5.51.8.3,13.19,1.31,14.5.59-1.31-.21-11.38-.21-11.38,0,0-.21-.51.7,1.31s.61,10.78,1.41,11.99c.4-1.6-1.32-10.98-.21-9.56s1.61,10.68,1.92,11.29c.81-1.52-.5-10.38-.5-10.38l.91.21c1.12.21.72,9.47,1.21,10.38.7-1.31.5-10.07.5-10.07l1.41-.61c.51,1.1-.1,5.84-.1,7.68,1.04-2.29,2.31-11.77,1.3-9.76ZM814.93,380.46c-5.1,4.18-5.79,6.72-10.66,6.48s-13.21-3.01-13.9-8.8c-.69-5.79-.46-16.22,1.86-18.99,2.32-2.78,6.02-4.41,8.8-5.56h0c3.42-1.44,10.2,3.69,11.35,6.71,1.15,3.02,7.65,15.98,2.55,20.16Z"/>
</svg>